<?xml version="1.0" encoding="utf-8"?>
<!-- Generator: Adobe Illustrator 26.4.1, SVG Export Plug-In . SVG Version: 6.00 Build 0)  -->
<svg version="1.1" id="Layer_1" xmlns="http://www.w3.org/2000/svg" xmlns:xlink="http://www.w3.org/1999/xlink" x="0px" y="0px"
	 viewBox="0 0 1000 1000" style="enable-background:new 0 0 1000 1000;" xml:space="preserve">
<style type="text/css">
	.st0{fill:#FFFFFF;}
	.st1{fill:none;}
</style>
<g>
	<path class="st0" d="M185.3,480.1H326v42.5H185.3V480.1L185.3,480.1z"/>
	<path class="st0" d="M764.2,480.1v-50.5h-42.5v50.5h-50.5v42.5h50.5v47.8h42.5v-47.8h50.5v-42.5
		C801.4,480.1,764.2,480.1,764.2,480.1L764.2,480.1z"/>
	<path class="st0" d="M748.3,267.6c-85,0-175.3,42.5-249.6,148.7C427,310.1,334,267.6,249,267.6c-98.3,0-212.5,55.8-239,201.8v63.7
		c0,5.3,8,34.5,13.3,50.5c47.8,109,146,148.8,225.7,148.8c87.6,0,175.3-45.1,252.3-148.7C575.7,692.6,666,732.4,751,732.4
		c119.5,0,239-93,239-233.7C990,365.9,878.5,267.6,748.3,267.6L748.3,267.6z M429.6,538.5C368.5,618.2,315.4,650.1,249,650.1
		c-5.3,0-26.6-2.7-39.8-5.3c-50.5-2.7-116.9-82.3-116.9-114.2v-61.1C110.9,379.2,190.6,350,249,350c31.9,0,29.2-5.3,66.4,10.6
		c21.2,8,45.1,26.6,69.1,45.1c0,0,69.1,79.7,69.1,93C453.5,506.6,437.6,525.2,429.6,538.5L429.6,538.5z M751,650.1
		c-63.7,0-111.5-23.9-175.3-100.9c-10.6-15.9-26.6-42.5-26.6-50.5c0-5.3,15.9-31.9,26.6-47.8C628.8,376.5,687.2,350,751,350
		c85,0,159.3,61.1,159.3,148.7C910.3,591.6,828,650.1,751,650.1L751,650.1z"/>
</g>
<rect x="14" y="335" class="st1" width="310" height="118"/>
</svg>
